# xmcd CD database file
#
# Track frame offsets:
#	150
#	5097
#	27557
#	43695
#	64382
#	78515
#	92070
#	111805
#	122350
#	131925
#	136357
#	149240
#	165922
#	171027
#	181690
#	193150
#	212617
#	223222
#
# Disc length: 3047 seconds
#
# Revision: 0
# Processed by: cddbd v1.5.1PL2 Copyright (c) Steve Scherf et al.
# Submitted via: CDex 1.51
#
DISCID=100be512
DTITLE=嘉門達夫 - 元気が出るCd！！
DYEAR=2005
DGENRE=JPop
TTITLE0=オープニング
TTITLE1=替え唄メドレー2005
TTITLE2=爆裂!ワンダーランド
TTITLE3=ジミー＆ハデー2005
TTITLE4=河内のオッサンの唄
TTITLE5=哀歌〜エレジー2005〜
TTITLE6=爆裂！ワンダーランドレギュラー
TTITLE7=生出し替え唄メドレー
TTITLE8=もおええやろキミ！2
TTITLE9=さなえちゃん
TTITLE10=よくわかる日本史2
TTITLE11=爆裂！ワンダーランドハイオク
TTITLE12=どん引き
TTITLE13=尾崎家の祖母
TTITLE14=昭和生まれの僕だから
TTITLE15=爆裂！ワンダーランドマックス
TTITLE16=赤とんぼの唄
TTITLE17=エンディング
EXTD=YEAR: 2005
EXTT0=
EXTT1=
EXTT2=
EXTT3=
EXTT4=
EXTT5=
EXTT6=
EXTT7=
EXTT8=
EXTT9=
EXTT10=
EXTT11=
EXTT12=
EXTT13=
EXTT14=
EXTT15=
EXTT16=
EXTT17=
PLAYORDER=
